<?xml version="1.0" encoding="UTF-8"?>
<!DOCTYPE svg PUBLIC "-//W3C//DTD SVG 1.1//EN" "http://www.w3.org/Graphics/SVG/1.1/DTD/svg11.dtd">
<svg xmlns="http://www.w3.org/2000/svg" version="1.1" width="3333px" height="3333px" style="shape-rendering:geometricPrecision; text-rendering:geometricPrecision; image-rendering:optimizeQuality; fill-rule:evenodd; clip-rule:evenodd" xmlns:xlink="http://www.w3.org/1999/xlink">
<g><path style="opacity:0.994" fill="#fefffe" d="M 1640.5,285.5 C 1846.38,282.064 2018.88,355.397 2158,505.5C 2291.51,661.104 2344.51,841.104 2317,1045.5C 2286.49,1224.12 2199.32,1367.62 2055.5,1476C 1912.18,1578 1752.85,1618.33 1577.5,1597C 1395.11,1569.6 1248.27,1483.1 1137,1337.5C 1029.03,1187.27 988.695,1020.27 1016,836.5C 1047.81,659.604 1135.31,517.771 1278.5,411C 1386.66,333.785 1507.33,291.952 1640.5,285.5 Z M 1645.5,442.5 C 1822.83,440.587 1964.99,509.587 2072,649.5C 2150.63,760.69 2180.63,884.023 2162,1019.5C 2135.78,1170.24 2058.94,1287.07 1931.5,1370C 1812.29,1441.81 1684.62,1462.48 1548.5,1432C 1392.13,1390.62 1278.97,1297.12 1209,1151.5C 1155.94,1029.7 1150.27,905.701 1192,779.5C 1234.46,663.385 1308.63,573.552 1414.5,510C 1486.21,469.151 1563.21,446.651 1645.5,442.5 Z"/></g>
<g><path style="opacity:0.995" fill="#fefffe" d="M 1622.5,1707.5 C 1948.6,1700.57 2235.6,1801.4 2483.5,2010C 2693.4,2193.5 2829.23,2422 2891,2695.5C 2914.37,2808.66 2923.54,2923 2918.5,3038.5C 2083.5,3038.5 1248.5,3038.5 413.5,3038.5C 400.629,2777.32 460.796,2534.65 594,2310.5C 737.706,2078.39 935.206,1908.89 1186.5,1802C 1326.34,1744.73 1471.67,1713.23 1622.5,1707.5 Z M 1626.5,1864.5 C 1935.25,1858.54 2201.58,1960.37 2425.5,2170C 2606.35,2346.52 2715.18,2560.69 2752,2812.5C 2754.87,2835.35 2757.37,2858.18 2759.5,2881C 2030.5,2881.67 1301.5,2881.67 572.5,2881C 592.632,2636.36 682.465,2421.86 842,2237.5C 1023.01,2034.88 1248.84,1913.71 1519.5,1874C 1555.2,1869.47 1590.87,1866.3 1626.5,1864.5 Z"/></g>
</svg>
