<?xml version="1.0" encoding="UTF-8"?>
<!DOCTYPE svg PUBLIC "-//W3C//DTD SVG 1.1//EN" "http://www.w3.org/Graphics/SVG/1.1/DTD/svg11.dtd">
<svg xmlns="http://www.w3.org/2000/svg" version="1.1" width="3333px" height="3333px" style="shape-rendering:geometricPrecision; text-rendering:geometricPrecision; image-rendering:optimizeQuality; fill-rule:evenodd; clip-rule:evenodd" xmlns:xlink="http://www.w3.org/1999/xlink">
<g><path style="opacity:0.994" fill="#fefffe" d="M 1604.5,285.5 C 1763.46,270.372 1892.96,324.039 1993,446.5C 2049.5,521.628 2078.33,606.628 2079.5,701.5C 2224.5,701.5 2369.5,701.5 2514.5,701.5C 2524.99,759.446 2535.15,817.446 2545,875.5C 2671.33,1570.84 2797.67,2266.17 2924,2961.5C 2928.24,2987.17 2932.4,3012.84 2936.5,3038.5C 2089.5,3038.5 1242.5,3038.5 395.5,3038.5C 398.005,3020.46 400.839,3002.46 404,2984.5C 530.26,2289.18 656.593,1593.85 783,898.5C 794.823,832.884 806.323,767.217 817.5,701.5C 958.167,701.5 1098.83,701.5 1239.5,701.5C 1243.91,554.486 1305.57,438.653 1424.5,354C 1479.21,317.485 1539.21,294.652 1604.5,285.5 Z M 1631.5,495.5 C 1677.5,494.175 1723.16,497.342 1768.5,505C 1795.37,510.061 1819.7,520.728 1841.5,537C 1857.81,552.882 1868.31,572.049 1873,594.5C 1875.16,607.423 1876.83,620.423 1878,633.5C 1879.14,656.153 1879.64,678.82 1879.5,701.5C 1735.17,701.5 1590.83,701.5 1446.5,701.5C 1446.75,674.15 1447.58,646.817 1449,619.5C 1450.38,600.295 1455.05,581.961 1463,564.5C 1478.16,536.358 1501.33,518.191 1532.5,510C 1547.59,505.596 1562.92,502.262 1578.5,500C 1596.32,498.432 1613.98,496.932 1631.5,495.5 Z M 1004.5,921.5 C 1082.5,921.5 1160.5,921.5 1238.5,921.5C 1238.5,991.5 1238.5,1061.5 1238.5,1131.5C 1307.83,1131.5 1377.17,1131.5 1446.5,1131.5C 1446.5,1061.5 1446.5,991.5 1446.5,921.5C 1590.5,921.5 1734.5,921.5 1878.5,921.5C 1878.5,991.5 1878.5,1061.5 1878.5,1131.5C 1945.5,1131.5 2012.5,1131.5 2079.5,1131.5C 2079.5,1061.5 2079.5,991.5 2079.5,921.5C 2160.21,920.838 2240.71,921.505 2321,923.5C 2444.49,1557.46 2567.66,2191.46 2690.5,2825.5C 2005.17,2825.83 1319.83,2825.5 634.5,2824.5C 758.313,2190.25 881.646,1555.92 1004.5,921.5 Z"/></g>
</svg>
