<?xml version="1.0" encoding="UTF-8"?>
<!DOCTYPE svg PUBLIC "-//W3C//DTD SVG 1.1//EN" "http://www.w3.org/Graphics/SVG/1.1/DTD/svg11.dtd">
<svg xmlns="http://www.w3.org/2000/svg" version="1.1" width="3333px" height="3333px" style="shape-rendering:geometricPrecision; text-rendering:geometricPrecision; image-rendering:optimizeQuality; fill-rule:evenodd; clip-rule:evenodd" xmlns:xlink="http://www.w3.org/1999/xlink">
<g><path style="opacity:0.997" fill="#fefffe" d="M 1569.5,285.5 C 1868.55,282.995 2132.22,376.829 2360.5,567C 2560.6,739.902 2690.1,956.068 2749,1215.5C 2803.43,1477.87 2774.43,1730.54 2662,1973.5C 2623.52,2053.87 2577.02,2128.87 2522.5,2198.5C 2733.82,2409.65 2945.32,2620.65 3157,2831.5C 3193.65,2876.42 3201.65,2926.09 3181,2980.5C 3153.28,3036.96 3107.78,3064.79 3044.5,3064C 3015.03,3062.07 2988.69,3052.07 2965.5,3034C 2751.36,2821.53 2537.53,2608.69 2324,2395.5C 2110.27,2561.53 1867.27,2645.53 1595,2647.5C 1311.3,2645.12 1060.14,2554.95 841.5,2377C 649.499,2215.65 519.999,2013.48 453,1770.5C 392.386,1533.9 402.053,1300.24 482,1069.5C 559.046,857.816 685.212,681.649 860.5,541C 1068.37,378.969 1304.71,293.802 1569.5,285.5 Z M 1564.5,564.5 C 1807.53,560.318 2019.53,638.152 2200.5,798C 2361.16,946.462 2457.33,1129.63 2489,1347.5C 2518.39,1596.89 2457.72,1821.22 2307,2020.5C 2156.58,2209.18 1961.41,2322.35 1721.5,2360C 1470.66,2391.79 1244.66,2332.12 1043.5,2181C 850.277,2028.13 735.777,1828.97 700,1583.5C 671.531,1337.67 730.865,1116 878,918.5C 1010.83,748.514 1182.66,638.014 1393.5,587C 1449.99,574.481 1506.99,566.981 1564.5,564.5 Z"/></g>
</svg>
